<mxfile host="app.diagrams.net" modified="2023-11-30T08:48:37.793Z" agent="Mozilla/5.0 (Windows NT 10.0; Win64; x64) AppleWebKit/537.36 (KHTML, like Gecko) Chrome/119.0.0.0 Safari/537.36" etag="iT72ICisKHTL2TsdUZFS" version="22.1.5" type="google">
  <diagram name="Pagina-1" id="pxb7ANm6ygupYnZGLutj">
    <mxGraphModel grid="1" page="1" gridSize="10" guides="1" tooltips="1" connect="1" arrows="1" fold="1" pageScale="1" pageWidth="827" pageHeight="1169" math="0" shadow="0">
      <root>
        <mxCell id="0" />
        <mxCell id="1" parent="0" />
        <mxCell id="6mUf5A8QIQVe2mzWLauJ-1" value="&lt;font style=&quot;font-size: 14px;&quot;&gt;&lt;b&gt;CLIENT&lt;/b&gt;&lt;/font&gt;" style="rounded=0;whiteSpace=wrap;html=1;" vertex="1" parent="1">
          <mxGeometry x="354" y="40" width="120" height="40" as="geometry" />
        </mxCell>
        <mxCell id="6mUf5A8QIQVe2mzWLauJ-6" value="" style="edgeStyle=orthogonalEdgeStyle;rounded=0;orthogonalLoop=1;jettySize=auto;html=1;entryX=1.01;entryY=0.859;entryDx=0;entryDy=0;entryPerimeter=0;exitX=0.08;exitY=0.002;exitDx=0;exitDy=0;exitPerimeter=0;" edge="1" parent="1" source="6mUf5A8QIQVe2mzWLauJ-7" target="6mUf5A8QIQVe2mzWLauJ-22">
          <mxGeometry relative="1" as="geometry">
            <Array as="points">
              <mxPoint x="571" y="320" />
              <mxPoint x="580" y="320" />
              <mxPoint x="580" y="185" />
            </Array>
            <mxPoint x="531.72" y="313.22400000000005" as="targetPoint" />
          </mxGeometry>
        </mxCell>
        <mxCell id="6mUf5A8QIQVe2mzWLauJ-7" value="Player&lt;br&gt;" style="swimlane;fontStyle=1;align=center;verticalAlign=top;childLayout=stackLayout;horizontal=1;startSize=26;horizontalStack=0;resizeParent=1;resizeParentMax=0;resizeLast=0;collapsible=1;marginBottom=0;whiteSpace=wrap;html=1;" vertex="1" parent="1">
          <mxGeometry x="549" y="350" width="270" height="170" as="geometry" />
        </mxCell>
        <mxCell id="6mUf5A8QIQVe2mzWLauJ-8" value="+ String nome&lt;br&gt;+ List&amp;lt;Carta&amp;gt; carteMano&lt;br&gt;+ Socket socket&lt;br&gt;+ GestioneCombinazioni gestioneCombinazioni&lt;br&gt;+ boolean aperto&lt;br&gt;+ Messaggio messaggio" style="text;strokeColor=none;fillColor=none;align=left;verticalAlign=top;spacingLeft=4;spacingRight=4;overflow=hidden;rotatable=0;points=[[0,0.5],[1,0.5]];portConstraint=eastwest;whiteSpace=wrap;html=1;" vertex="1" parent="6mUf5A8QIQVe2mzWLauJ-7">
          <mxGeometry y="26" width="270" height="94" as="geometry" />
        </mxCell>
        <mxCell id="6mUf5A8QIQVe2mzWLauJ-9" value="" style="line;strokeWidth=1;fillColor=none;align=left;verticalAlign=middle;spacingTop=-1;spacingLeft=3;spacingRight=3;rotatable=0;labelPosition=right;points=[];portConstraint=eastwest;strokeColor=inherit;" vertex="1" parent="6mUf5A8QIQVe2mzWLauJ-7">
          <mxGeometry y="120" width="270" height="8" as="geometry" />
        </mxCell>
        <mxCell id="6mUf5A8QIQVe2mzWLauJ-10" value="+ Player( String n, Socket s) :&amp;nbsp;&lt;br&gt;+ run() : void" style="text;strokeColor=none;fillColor=none;align=left;verticalAlign=top;spacingLeft=4;spacingRight=4;overflow=hidden;rotatable=0;points=[[0,0.5],[1,0.5]];portConstraint=eastwest;whiteSpace=wrap;html=1;" vertex="1" parent="6mUf5A8QIQVe2mzWLauJ-7">
          <mxGeometry y="128" width="270" height="42" as="geometry" />
        </mxCell>
        <mxCell id="6mUf5A8QIQVe2mzWLauJ-11" value="Messaggio" style="swimlane;fontStyle=1;align=center;verticalAlign=top;childLayout=stackLayout;horizontal=1;startSize=26;horizontalStack=0;resizeParent=1;resizeParentMax=0;resizeLast=0;collapsible=1;marginBottom=0;whiteSpace=wrap;html=1;" vertex="1" parent="1">
          <mxGeometry x="335" y="395" width="190" height="140" as="geometry" />
        </mxCell>
        <mxCell id="6mUf5A8QIQVe2mzWLauJ-12" value="+ String mess&lt;br&gt;+ String input&lt;br&gt;+ String output" style="text;strokeColor=none;fillColor=none;align=left;verticalAlign=top;spacingLeft=4;spacingRight=4;overflow=hidden;rotatable=0;points=[[0,0.5],[1,0.5]];portConstraint=eastwest;whiteSpace=wrap;html=1;" vertex="1" parent="6mUf5A8QIQVe2mzWLauJ-11">
          <mxGeometry y="26" width="190" height="54" as="geometry" />
        </mxCell>
        <mxCell id="6mUf5A8QIQVe2mzWLauJ-13" value="" style="line;strokeWidth=1;fillColor=none;align=left;verticalAlign=middle;spacingTop=-1;spacingLeft=3;spacingRight=3;rotatable=0;labelPosition=right;points=[];portConstraint=eastwest;strokeColor=inherit;" vertex="1" parent="6mUf5A8QIQVe2mzWLauJ-11">
          <mxGeometry y="80" width="190" height="8" as="geometry" />
        </mxCell>
        <mxCell id="6mUf5A8QIQVe2mzWLauJ-14" value="+ Messaggio(String m)&lt;br&gt;+ deserializeCarte() : List&amp;lt;Carta&amp;gt;&lt;br&gt;+ setOutput(String s) : void" style="text;strokeColor=none;fillColor=none;align=left;verticalAlign=top;spacingLeft=4;spacingRight=4;overflow=hidden;rotatable=0;points=[[0,0.5],[1,0.5]];portConstraint=eastwest;whiteSpace=wrap;html=1;" vertex="1" parent="6mUf5A8QIQVe2mzWLauJ-11">
          <mxGeometry y="88" width="190" height="52" as="geometry" />
        </mxCell>
        <mxCell id="6mUf5A8QIQVe2mzWLauJ-19" value="" style="endArrow=classic;html=1;rounded=0;exitX=0.5;exitY=1;exitDx=0;exitDy=0;entryX=0.5;entryY=0;entryDx=0;entryDy=0;" edge="1" parent="1" source="6mUf5A8QIQVe2mzWLauJ-1">
          <mxGeometry width="50" height="50" relative="1" as="geometry">
            <mxPoint x="390" y="280" as="sourcePoint" />
            <mxPoint x="414" y="130" as="targetPoint" />
          </mxGeometry>
        </mxCell>
        <mxCell id="6mUf5A8QIQVe2mzWLauJ-21" value="Campo" style="swimlane;fontStyle=1;align=center;verticalAlign=top;childLayout=stackLayout;horizontal=1;startSize=26;horizontalStack=0;resizeParent=1;resizeParentMax=0;resizeLast=0;collapsible=1;marginBottom=0;whiteSpace=wrap;html=1;" vertex="1" parent="1">
          <mxGeometry x="270" y="130" width="270" height="110" as="geometry" />
        </mxCell>
        <mxCell id="6mUf5A8QIQVe2mzWLauJ-22" value="+ GestioneCombinazioni gestioneCombinazioni&lt;br&gt;+ GestioneMazzo gestioneMazzo" style="text;strokeColor=none;fillColor=none;align=left;verticalAlign=top;spacingLeft=4;spacingRight=4;overflow=hidden;rotatable=0;points=[[0,0.5],[1,0.5]];portConstraint=eastwest;whiteSpace=wrap;html=1;" vertex="1" parent="6mUf5A8QIQVe2mzWLauJ-21">
          <mxGeometry y="26" width="270" height="34" as="geometry" />
        </mxCell>
        <mxCell id="6mUf5A8QIQVe2mzWLauJ-23" value="" style="line;strokeWidth=1;fillColor=none;align=left;verticalAlign=middle;spacingTop=-1;spacingLeft=3;spacingRight=3;rotatable=0;labelPosition=right;points=[];portConstraint=eastwest;strokeColor=inherit;" vertex="1" parent="6mUf5A8QIQVe2mzWLauJ-21">
          <mxGeometry y="60" width="270" height="8" as="geometry" />
        </mxCell>
        <mxCell id="6mUf5A8QIQVe2mzWLauJ-24" value="+ Campo()&lt;br&gt;+ serializeAll() : String" style="text;strokeColor=none;fillColor=none;align=left;verticalAlign=top;spacingLeft=4;spacingRight=4;overflow=hidden;rotatable=0;points=[[0,0.5],[1,0.5]];portConstraint=eastwest;whiteSpace=wrap;html=1;" vertex="1" parent="6mUf5A8QIQVe2mzWLauJ-21">
          <mxGeometry y="68" width="270" height="42" as="geometry" />
        </mxCell>
        <mxCell id="6mUf5A8QIQVe2mzWLauJ-31" value="" style="edgeStyle=orthogonalEdgeStyle;rounded=0;orthogonalLoop=1;jettySize=auto;html=1;entryX=0;entryY=0.5;entryDx=0;entryDy=0;" edge="1" parent="1" source="6mUf5A8QIQVe2mzWLauJ-32" target="6mUf5A8QIQVe2mzWLauJ-22">
          <mxGeometry relative="1" as="geometry">
            <Array as="points">
              <mxPoint x="155" y="225" />
              <mxPoint x="80" y="225" />
              <mxPoint x="80" y="173" />
            </Array>
            <mxPoint x="80" y="250" as="targetPoint" />
          </mxGeometry>
        </mxCell>
        <mxCell id="6mUf5A8QIQVe2mzWLauJ-32" value="GestioneCombinazioni" style="swimlane;fontStyle=1;align=center;verticalAlign=top;childLayout=stackLayout;horizontal=1;startSize=26;horizontalStack=0;resizeParent=1;resizeParentMax=0;resizeLast=0;collapsible=1;marginBottom=0;whiteSpace=wrap;html=1;" vertex="1" parent="1">
          <mxGeometry x="29" y="320" width="230" height="100" as="geometry" />
        </mxCell>
        <mxCell id="6mUf5A8QIQVe2mzWLauJ-33" value="+ List&amp;lt;Combinazione&amp;gt; combianazioni" style="text;strokeColor=none;fillColor=none;align=left;verticalAlign=top;spacingLeft=4;spacingRight=4;overflow=hidden;rotatable=0;points=[[0,0.5],[1,0.5]];portConstraint=eastwest;whiteSpace=wrap;html=1;" vertex="1" parent="6mUf5A8QIQVe2mzWLauJ-32">
          <mxGeometry y="26" width="230" height="24" as="geometry" />
        </mxCell>
        <mxCell id="6mUf5A8QIQVe2mzWLauJ-34" value="" style="line;strokeWidth=1;fillColor=none;align=left;verticalAlign=middle;spacingTop=-1;spacingLeft=3;spacingRight=3;rotatable=0;labelPosition=right;points=[];portConstraint=eastwest;strokeColor=inherit;" vertex="1" parent="6mUf5A8QIQVe2mzWLauJ-32">
          <mxGeometry y="50" width="230" height="8" as="geometry" />
        </mxCell>
        <mxCell id="6mUf5A8QIQVe2mzWLauJ-35" value="+ GestioneCombinazioni()&lt;br&gt;+ serialize() : String&amp;nbsp;" style="text;strokeColor=none;fillColor=none;align=left;verticalAlign=top;spacingLeft=4;spacingRight=4;overflow=hidden;rotatable=0;points=[[0,0.5],[1,0.5]];portConstraint=eastwest;whiteSpace=wrap;html=1;" vertex="1" parent="6mUf5A8QIQVe2mzWLauJ-32">
          <mxGeometry y="58" width="230" height="42" as="geometry" />
        </mxCell>
        <mxCell id="6mUf5A8QIQVe2mzWLauJ-36" value="GestioneMazzo" style="swimlane;fontStyle=1;align=center;verticalAlign=top;childLayout=stackLayout;horizontal=1;startSize=26;horizontalStack=0;resizeParent=1;resizeParentMax=0;resizeLast=0;collapsible=1;marginBottom=0;whiteSpace=wrap;html=1;" vertex="1" parent="1">
          <mxGeometry x="25" y="520" width="260" height="120" as="geometry" />
        </mxCell>
        <mxCell id="6mUf5A8QIQVe2mzWLauJ-37" value="+ List&amp;lt;Carta&amp;gt; mazzo&lt;br&gt;+ List&amp;lt;Carta&amp;gt; scarti" style="text;strokeColor=none;fillColor=none;align=left;verticalAlign=top;spacingLeft=4;spacingRight=4;overflow=hidden;rotatable=0;points=[[0,0.5],[1,0.5]];portConstraint=eastwest;whiteSpace=wrap;html=1;" vertex="1" parent="6mUf5A8QIQVe2mzWLauJ-36">
          <mxGeometry y="26" width="260" height="34" as="geometry" />
        </mxCell>
        <mxCell id="6mUf5A8QIQVe2mzWLauJ-38" value="" style="line;strokeWidth=1;fillColor=none;align=left;verticalAlign=middle;spacingTop=-1;spacingLeft=3;spacingRight=3;rotatable=0;labelPosition=right;points=[];portConstraint=eastwest;strokeColor=inherit;" vertex="1" parent="6mUf5A8QIQVe2mzWLauJ-36">
          <mxGeometry y="60" width="260" height="8" as="geometry" />
        </mxCell>
        <mxCell id="6mUf5A8QIQVe2mzWLauJ-39" value="+ GestioneMazzo()&lt;br&gt;+ serialize() : String&amp;nbsp;" style="text;strokeColor=none;fillColor=none;align=left;verticalAlign=top;spacingLeft=4;spacingRight=4;overflow=hidden;rotatable=0;points=[[0,0.5],[1,0.5]];portConstraint=eastwest;whiteSpace=wrap;html=1;" vertex="1" parent="6mUf5A8QIQVe2mzWLauJ-36">
          <mxGeometry y="68" width="260" height="52" as="geometry" />
        </mxCell>
        <mxCell id="6mUf5A8QIQVe2mzWLauJ-40" value="" style="edgeStyle=orthogonalEdgeStyle;rounded=0;orthogonalLoop=1;jettySize=auto;html=1;entryX=-0.004;entryY=0.268;entryDx=0;entryDy=0;entryPerimeter=0;" edge="1" parent="1" source="6mUf5A8QIQVe2mzWLauJ-42" target="6mUf5A8QIQVe2mzWLauJ-50">
          <mxGeometry relative="1" as="geometry" />
        </mxCell>
        <mxCell id="6mUf5A8QIQVe2mzWLauJ-41" value="" style="edgeStyle=orthogonalEdgeStyle;rounded=0;orthogonalLoop=1;jettySize=auto;html=1;entryX=0.362;entryY=1.025;entryDx=0;entryDy=0;entryPerimeter=0;" edge="1" parent="1" source="6mUf5A8QIQVe2mzWLauJ-42" target="6mUf5A8QIQVe2mzWLauJ-39">
          <mxGeometry relative="1" as="geometry">
            <Array as="points">
              <mxPoint x="120" y="720" />
              <mxPoint x="120" y="720" />
            </Array>
          </mxGeometry>
        </mxCell>
        <mxCell id="6mUf5A8QIQVe2mzWLauJ-42" value="Carta" style="swimlane;fontStyle=1;align=center;verticalAlign=top;childLayout=stackLayout;horizontal=1;startSize=26;horizontalStack=0;resizeParent=1;resizeParentMax=0;resizeLast=0;collapsible=1;marginBottom=0;whiteSpace=wrap;html=1;" vertex="1" parent="1">
          <mxGeometry y="780" width="240" height="140" as="geometry" />
        </mxCell>
        <mxCell id="6mUf5A8QIQVe2mzWLauJ-43" value="+ char cover&lt;br&gt;+ char rank&lt;br&gt;+ char type&lt;br&gt;+ int value" style="text;strokeColor=none;fillColor=none;align=left;verticalAlign=top;spacingLeft=4;spacingRight=4;overflow=hidden;rotatable=0;points=[[0,0.5],[1,0.5]];portConstraint=eastwest;whiteSpace=wrap;html=1;" vertex="1" parent="6mUf5A8QIQVe2mzWLauJ-42">
          <mxGeometry y="26" width="240" height="64" as="geometry" />
        </mxCell>
        <mxCell id="6mUf5A8QIQVe2mzWLauJ-44" value="" style="line;strokeWidth=1;fillColor=none;align=left;verticalAlign=middle;spacingTop=-1;spacingLeft=3;spacingRight=3;rotatable=0;labelPosition=right;points=[];portConstraint=eastwest;strokeColor=inherit;" vertex="1" parent="6mUf5A8QIQVe2mzWLauJ-42">
          <mxGeometry y="90" width="240" height="8" as="geometry" />
        </mxCell>
        <mxCell id="6mUf5A8QIQVe2mzWLauJ-45" value="+ getValue() : int&lt;br&gt;+ serialize() : String&amp;nbsp;" style="text;strokeColor=none;fillColor=none;align=left;verticalAlign=top;spacingLeft=4;spacingRight=4;overflow=hidden;rotatable=0;points=[[0,0.5],[1,0.5]];portConstraint=eastwest;whiteSpace=wrap;html=1;" vertex="1" parent="6mUf5A8QIQVe2mzWLauJ-42">
          <mxGeometry y="98" width="240" height="42" as="geometry" />
        </mxCell>
        <mxCell id="6mUf5A8QIQVe2mzWLauJ-46" value="" style="edgeStyle=orthogonalEdgeStyle;rounded=0;orthogonalLoop=1;jettySize=auto;html=1;entryX=1.043;entryY=0.306;entryDx=0;entryDy=0;entryPerimeter=0;" edge="1" parent="1" target="6mUf5A8QIQVe2mzWLauJ-35">
          <mxGeometry relative="1" as="geometry">
            <Array as="points">
              <mxPoint x="380" y="640" />
              <mxPoint x="320" y="640" />
              <mxPoint x="320" y="391" />
            </Array>
            <mxPoint x="380" y="770" as="sourcePoint" />
          </mxGeometry>
        </mxCell>
        <mxCell id="6mUf5A8QIQVe2mzWLauJ-47" value="Combinazione" style="swimlane;fontStyle=1;align=center;verticalAlign=top;childLayout=stackLayout;horizontal=1;startSize=26;horizontalStack=0;resizeParent=1;resizeParentMax=0;resizeLast=0;collapsible=1;marginBottom=0;whiteSpace=wrap;html=1;" vertex="1" parent="1">
          <mxGeometry x="309" y="780" width="240" height="110" as="geometry" />
        </mxCell>
        <mxCell id="6mUf5A8QIQVe2mzWLauJ-48" value="+ List&amp;lt;Carta&amp;gt; combinazione&lt;br&gt;+ String tipo" style="text;strokeColor=none;fillColor=none;align=left;verticalAlign=top;spacingLeft=4;spacingRight=4;overflow=hidden;rotatable=0;points=[[0,0.5],[1,0.5]];portConstraint=eastwest;whiteSpace=wrap;html=1;" vertex="1" parent="6mUf5A8QIQVe2mzWLauJ-47">
          <mxGeometry y="26" width="240" height="34" as="geometry" />
        </mxCell>
        <mxCell id="6mUf5A8QIQVe2mzWLauJ-49" value="" style="line;strokeWidth=1;fillColor=none;align=left;verticalAlign=middle;spacingTop=-1;spacingLeft=3;spacingRight=3;rotatable=0;labelPosition=right;points=[];portConstraint=eastwest;strokeColor=inherit;" vertex="1" parent="6mUf5A8QIQVe2mzWLauJ-47">
          <mxGeometry y="60" width="240" height="8" as="geometry" />
        </mxCell>
        <mxCell id="6mUf5A8QIQVe2mzWLauJ-50" value="+ Combinazione()&lt;br&gt;+ serialize() : String&amp;nbsp;" style="text;strokeColor=none;fillColor=none;align=left;verticalAlign=top;spacingLeft=4;spacingRight=4;overflow=hidden;rotatable=0;points=[[0,0.5],[1,0.5]];portConstraint=eastwest;whiteSpace=wrap;html=1;" vertex="1" parent="6mUf5A8QIQVe2mzWLauJ-47">
          <mxGeometry y="68" width="240" height="42" as="geometry" />
        </mxCell>
        <mxCell id="6mUf5A8QIQVe2mzWLauJ-51" value="" style="edgeStyle=orthogonalEdgeStyle;rounded=0;orthogonalLoop=1;jettySize=auto;html=1;exitX=-0.012;exitY=0.239;exitDx=0;exitDy=0;exitPerimeter=0;entryX=-0.012;entryY=0.109;entryDx=0;entryDy=0;entryPerimeter=0;" edge="1" parent="1" source="6mUf5A8QIQVe2mzWLauJ-39" target="6mUf5A8QIQVe2mzWLauJ-21">
          <mxGeometry relative="1" as="geometry">
            <mxPoint x="91" y="497" as="sourcePoint" />
            <mxPoint x="320" y="290" as="targetPoint" />
            <Array as="points">
              <mxPoint x="10" y="600" />
              <mxPoint x="10" y="260" />
              <mxPoint x="20" y="260" />
              <mxPoint x="20" y="142" />
            </Array>
          </mxGeometry>
        </mxCell>
        <mxCell id="6mUf5A8QIQVe2mzWLauJ-52" value="" style="endArrow=classic;html=1;rounded=0;exitX=0.424;exitY=-0.019;exitDx=0;exitDy=0;exitPerimeter=0;entryX=0.539;entryY=1.086;entryDx=0;entryDy=0;entryPerimeter=0;" edge="1" parent="1">
          <mxGeometry width="50" height="50" relative="1" as="geometry">
            <mxPoint x="440.03" y="388.73" as="sourcePoint" />
            <mxPoint x="440" y="240.00199999999995" as="targetPoint" />
          </mxGeometry>
        </mxCell>
      </root>
    </mxGraphModel>
  </diagram>
</mxfile>
